# Blender 4.2.0
# www.blender.org
mtllib boulder.mtl
o boulder
v -0.081210 -0.981698 -0.452279
v -0.399163 -0.919926 0.383422
v 0.458273 -0.469763 0.272457
v 0.105672 -0.981698 0.321056
v -0.393936 -0.853129 0.418256
v 0.499500 -0.680291 0.117852
v -0.534247 -0.701768 0.382496
v -0.479510 -0.912982 0.293040
v -0.015092 -0.981698 0.399771
v -0.122341 -0.855072 0.449535
v 0.344337 -0.602433 -0.433642
v 0.423643 -0.890461 -0.330979
v 0.499500 -0.826118 0.039820
v 0.105480 -0.981698 -0.351503
v -0.487069 -0.692978 -0.484723
v 0.239649 -0.981698 -0.261407
v 0.248848 -0.981698 0.129034
v 0.499500 -0.899912 -0.234830
v -0.308438 -0.899383 -0.484723
v -0.104087 -0.918204 -0.484723
v -0.296181 -0.981698 -0.361061
v -0.499500 -0.868095 0.289137
v -0.499500 -0.903413 -0.143554
v -0.437764 -0.981698 -0.113508
v -0.199829 -0.981698 0.376703
v -0.445269 -0.981698 0.164313
v -0.354529 -0.463105 0.333556
v 0.325452 -0.331313 -0.366810
v -0.356326 -0.438960 -0.410013
v 0.358147 -0.309509 0.156725
v -0.306895 -0.167403 0.067654
v -0.155180 -0.236470 -0.311990
v 0.130184 -0.166990 -0.211925
v 0.066926 -0.175587 0.054500
vn 0.5231 0.8522 0.0060
vn 0.0181 0.5673 -0.8233
vn 0.5154 -0.2537 0.8185
vn 0.6256 -0.4980 0.6006
vn 0.2891 -0.3617 -0.8863
vn 0.2365 0.0211 0.9714
vn -0.1083 -0.4467 0.8881
vn 0.4292 -0.8983 0.0937
vn -0.6778 -0.6252 -0.3869
vn -0.6859 -0.4011 0.6072
vn 0.2937 -0.8789 -0.3758
vn -0.8457 0.5336 -0.0129
vn -0.0000 -1.0000 -0.0000
vn -0.1747 -0.7389 -0.6508
vn -0.8573 -0.5147 0.0138
vn -0.3149 -0.8941 0.3183
vn 0.0338 0.1843 -0.9823
vn -0.9039 0.4053 -0.1369
vn 0.9244 0.3643 -0.1132
vn 0.0418 0.6637 0.7469
vn 0.9484 0.1961 -0.2493
vn -0.0765 0.9900 -0.1181
vn -0.9961 -0.0817 -0.0345
vn -0.0977 0.5361 0.8385
vn 0.1000 0.3156 0.9436
vt 0.375000 0.500000
vt 0.606019 0.500000
vt 0.611104 0.566977
vt 0.375000 0.587241
vt 0.125000 0.500000
vt 0.125000 0.590682
vt 0.589233 0.825068
vt 0.600477 0.674573
vt 0.615273 0.621888
vt 0.608799 0.873928
vt 0.596345 0.878777
vt 0.528593 0.774015
vt 0.517952 0.736566
vt 0.375000 0.655089
vt 0.405989 0.727168
vt 0.375140 0.750000
vt 0.237796 0.750000
vt 0.223952 0.734111
vt 0.592022 0.751928
vt 0.579775 0.471013
vt 0.600971 0.616663
vt 0.592254 0.803406
vt 0.590572 0.925007
vt 0.414497 0.750000
vt 0.437536 0.742534
vt 0.125000 0.681972
vt 0.299298 0.855885
vt 0.405947 0.691037
vt 0.467897 0.209827
vt 0.388382 0.196396
vt 0.568659 0.684628
vt 0.569636 0.804235
vt 0.592022 0.082691
vt 0.375000 0.068028
vt 0.579775 0.176329
vt 0.375000 0.159318
vt 0.405947 0.949119
vt 0.383119 0.895323
vt 0.408338 0.783198
vt 0.430885 0.766388
vt 0.537421 0.986429
vt 0.467897 0.984551
vt 0.172813 0.729401
vt 0.569636 0.407314
vt 0.568659 0.028429
vt 0.460378 0.019591
vt 0.570139 0.250000
vt 0.375000 0.250000
vt 0.600971 0.877059
s 0
usemtl Material.001
f 33/1/1 34/2/1 30/3/1 28/4/1
f 32/5/2 33/1/2 28/4/2 29/6/2
f 4/7/3 6/8/3 3/9/3 10/10/3 9/11/3
f 4/7/4 17/12/4 13/13/4 6/8/4
f 11/14/5 12/15/5 14/16/5 1/17/5 20/18/5
f 7/19/6 30/3/6 27/20/6
f 9/11/7 10/10/7 5/21/7 2/22/7 25/23/7
f 17/12/8 16/24/8 18/25/8 13/13/8
f 15/26/9 19/27/9 21/28/9 24/29/9 23/30/9
f 22/31/10 8/32/10 2/22/10 5/21/10 7/33/10
f 14/16/11 12/15/11 18/25/11 16/24/11
f 15/34/12 7/33/12 27/35/12 29/36/12
f 21/37/13 1/38/13 14/39/13 16/40/13 17/12/13 4/7/13 9/11/13 25/23/13 26/41/13 24/42/13
f 20/18/14 1/38/14 21/28/14 19/43/14
f 24/42/15 26/41/15 8/44/15 22/45/15 23/46/15
f 26/41/16 25/23/16 2/22/16 8/44/16
f 29/6/17 28/4/17 11/14/17 20/18/17 19/43/17 15/26/17
f 29/36/18 27/35/18 31/47/18 32/48/18
f 28/4/19 30/3/19 3/9/19 6/8/19
f 27/20/20 30/3/20 34/2/20 31/47/20
f 6/8/21 13/13/21 18/25/21 12/15/21 11/14/21 28/4/21
f 32/48/22 31/47/22 34/2/22 33/1/22
f 7/33/23 15/34/23 23/46/23 22/45/23
f 30/3/24 5/49/24 10/10/24 3/9/24
f 5/49/25 30/3/25 7/19/25
